<svg width="22" height="24" viewBox="0 0 22 24" fill="none" xmlns="http://www.w3.org/2000/svg">
<g clip-path="url(#clip0_31_3418)">
<path d="M18.9641 1.5H2.46411C1.86737 1.5 1.29508 1.73705 0.873121 2.15901C0.451164 2.58097 0.214111 3.15326 0.214111 3.75L0.214111 20.25C0.214111 20.8467 0.451164 21.419 0.873121 21.841C1.29508 22.2629 1.86737 22.5 2.46411 22.5H8.89771V15.3605H5.94458V12H8.89771V9.43875C8.89771 6.52547 10.6321 4.91625 13.2885 4.91625C14.5607 4.91625 15.891 5.14313 15.891 5.14313V8.0025H14.4252C12.981 8.0025 12.5305 8.89875 12.5305 9.81797V12H15.7546L15.239 15.3605H12.5305V22.5H18.9641C19.5608 22.5 20.1331 22.2629 20.5551 21.841C20.9771 21.419 21.2141 20.8467 21.2141 20.25V3.75C21.2141 3.15326 20.9771 2.58097 20.5551 2.15901C20.1331 1.73705 19.5608 1.5 18.9641 1.5Z" fill="white"/>
</g>
<defs>
<clipPath id="clip0_31_3418">
<rect width="21" height="24" fill="white" transform="translate(0.214111)"/>
</clipPath>
</defs>
</svg>
