<svg width="25" height="24" viewBox="0 0 25 24" fill="none" xmlns="http://www.w3.org/2000/svg">
<g clip-path="url(#clip0_31_3426)">
<path d="M15.2641 5C16.2408 5.19057 17.1385 5.66826 17.8422 6.37194C18.5458 7.07561 19.0235 7.97326 19.2141 8.95M15.2641 1C17.2934 1.22544 19.1857 2.13417 20.6303 3.57701C22.075 5.01984 22.9861 6.91101 23.2141 8.94M22.2141 16.92V19.92C22.2152 20.1985 22.1582 20.4742 22.0466 20.7293C21.935 20.9845 21.7714 21.2136 21.5662 21.4019C21.361 21.5901 21.1187 21.7335 20.8549 21.8227C20.591 21.9119 20.3115 21.9451 20.0341 21.92C16.9569 21.5856 14.0011 20.5341 11.4041 18.85C8.98793 17.3147 6.93944 15.2662 5.40411 12.85C3.71408 10.2412 2.66235 7.27099 2.33411 4.18C2.30912 3.90347 2.34198 3.62476 2.43061 3.36162C2.51923 3.09849 2.66168 2.85669 2.84887 2.65162C3.03607 2.44655 3.26391 2.28271 3.5179 2.17052C3.77188 2.05833 4.04645 2.00026 4.32411 2H7.32411C7.80941 1.99522 8.2799 2.16708 8.64787 2.48353C9.01584 2.79999 9.25618 3.23945 9.32411 3.72C9.45073 4.68007 9.68556 5.62273 10.0241 6.53C10.1586 6.88792 10.1878 7.27691 10.108 7.65088C10.0283 8.02485 9.84297 8.36811 9.57411 8.64L8.30411 9.91C9.72766 12.4135 11.8006 14.4864 14.3041 15.91L15.5741 14.64C15.846 14.3711 16.1893 14.1858 16.5632 14.1061C16.9372 14.0263 17.3262 14.0555 17.6841 14.19C18.5914 14.5286 19.534 14.7634 20.4941 14.89C20.9799 14.9585 21.4235 15.2032 21.7406 15.5775C22.0578 15.9518 22.2263 16.4296 22.2141 16.92Z" stroke="white" stroke-width="2" stroke-linecap="round" stroke-linejoin="round"/>
</g>
<defs>
<clipPath id="clip0_31_3426">
<rect width="24" height="24" fill="white" transform="translate(0.214111)"/>
</clipPath>
</defs>
</svg>
