<svg width="22" height="24" viewBox="0 0 22 24" fill="none" xmlns="http://www.w3.org/2000/svg">
<g clip-path="url(#clip0_31_3422)">
<path d="M10.9641 9.49969C10.4696 9.49987 9.98632 9.64667 9.57527 9.92152C9.16422 10.1964 8.84389 10.5869 8.65479 11.0438C8.46569 11.5007 8.41631 12.0034 8.51289 12.4884C8.60947 12.9733 8.84768 13.4187 9.19739 13.7683C9.5471 14.1179 9.99262 14.3559 10.4776 14.4523C10.9626 14.5487 11.4653 14.4992 11.9221 14.3099C12.3789 14.1206 12.7694 13.8002 13.044 13.389C13.3187 12.9778 13.4654 12.4945 13.4654 12C13.4649 11.3369 13.2012 10.701 12.7322 10.2322C12.2632 9.76341 11.6272 9.49994 10.9641 9.49969ZM16.8099 7.57781C16.6826 7.25524 16.4904 6.96226 16.2452 6.71705C16 6.47184 15.707 6.27963 15.3844 6.15234C14.4 5.76375 12.0563 5.85094 10.9641 5.85094C9.87192 5.85094 7.53052 5.76047 6.54333 6.15234C6.22076 6.27963 5.92778 6.47184 5.68257 6.71705C5.43736 6.96226 5.24515 7.25524 5.11786 7.57781C4.72974 8.56219 4.81645 10.9083 4.81645 11.9995C4.81645 13.0908 4.72974 15.4341 5.11974 16.4217C5.24702 16.7443 5.43923 17.0373 5.68444 17.2825C5.92965 17.5277 6.22263 17.7199 6.54521 17.8472C7.52958 18.2358 9.87333 18.1486 10.966 18.1486C12.0586 18.1486 14.3991 18.2391 15.3863 17.8472C15.7089 17.7199 16.0019 17.5277 16.2471 17.2825C16.4923 17.0373 16.6845 16.7443 16.8118 16.4217C17.2032 15.4373 17.1132 13.0913 17.1132 12C17.1132 10.9087 17.2032 8.56594 16.8118 7.57828L16.8099 7.57781ZM10.9641 15.8438C10.2039 15.8438 9.46074 15.6183 8.82864 15.196C8.19654 14.7736 7.70387 14.1733 7.41295 13.4709C7.12203 12.7686 7.04591 11.9957 7.19422 11.2501C7.34253 10.5045 7.70861 9.81962 8.24617 9.28206C8.78373 8.7445 9.46862 8.37842 10.2142 8.23011C10.9598 8.08179 11.7327 8.15791 12.4351 8.44884C13.1374 8.73976 13.7377 9.23243 14.1601 9.86453C14.5824 10.4966 14.8079 11.2398 14.8079 12C14.8085 12.5049 14.7095 13.005 14.5165 13.4717C14.3236 13.9383 14.0405 14.3623 13.6834 14.7193C13.3264 15.0764 12.9024 15.3595 12.4358 15.5524C11.9692 15.7454 11.4691 15.8444 10.9641 15.8438ZM14.9663 8.89219C14.7888 8.89228 14.6153 8.83974 14.4677 8.74121C14.3201 8.64268 14.205 8.5026 14.1371 8.33866C14.0691 8.17473 14.0513 7.99432 14.0858 7.82026C14.1204 7.64619 14.2058 7.48628 14.3313 7.36076C14.4567 7.23524 14.6166 7.14974 14.7906 7.11509C14.9647 7.08043 15.1451 7.09817 15.3091 7.16606C15.473 7.23395 15.6132 7.34895 15.7118 7.4965C15.8104 7.64405 15.863 7.81753 15.863 7.995C15.8635 8.11285 15.8407 8.22964 15.796 8.33866C15.7512 8.44769 15.6854 8.54681 15.6023 8.63034C15.5191 8.71387 15.4203 8.78016 15.3115 8.82542C15.2027 8.87067 15.086 8.894 14.9682 8.89406L14.9663 8.89219ZM19.2141 1.5H2.71411C2.11737 1.5 1.54508 1.73705 1.12312 2.15901C0.701164 2.58097 0.464111 3.15326 0.464111 3.75L0.464111 20.25C0.464111 20.8467 0.701164 21.419 1.12312 21.841C1.54508 22.2629 2.11737 22.5 2.71411 22.5H19.2141C19.8108 22.5 20.3831 22.2629 20.8051 21.841C21.2271 21.419 21.4641 20.8467 21.4641 20.25V3.75C21.4641 3.15326 21.2271 2.58097 20.8051 2.15901C20.3831 1.73705 19.8108 1.5 19.2141 1.5ZM18.4116 15.0938C18.3511 16.2952 18.0769 17.3597 17.1999 18.2344C16.3229 19.1091 15.2593 19.3889 14.0593 19.4461C12.8213 19.5159 9.10974 19.5159 7.87177 19.4461C6.67036 19.3856 5.60958 19.1109 4.73114 18.2344C3.85271 17.3578 3.57661 16.2928 3.51942 15.0938C3.44958 13.8553 3.44958 10.1433 3.51942 8.90625C3.57989 7.70484 3.85083 6.64031 4.73114 5.76562C5.61145 4.89094 6.67505 4.61438 7.87177 4.55719C9.10974 4.48734 12.8213 4.48734 14.0593 4.55719C15.2607 4.61766 16.3247 4.89234 17.1999 5.76891C18.075 6.64547 18.3544 7.71047 18.4116 8.91187C18.4815 10.1456 18.4815 13.8544 18.4116 15.0938Z" fill="white"/>
</g>
<defs>
<clipPath id="clip0_31_3422">
<rect width="21" height="24" fill="white" transform="translate(0.464111)"/>
</clipPath>
</defs>
</svg>
