<svg width="24" height="24" viewBox="0 0 24 24" fill="none" xmlns="http://www.w3.org/2000/svg">
<g clip-path="url(#clip0_31_3420)">
<path d="M11.8391 0.375C5.41724 0.375 0.214111 5.57812 0.214111 12C0.214111 18.4219 5.41724 23.625 11.8391 23.625C18.261 23.625 23.4641 18.4219 23.4641 12C23.4641 5.57812 18.261 0.375 11.8391 0.375ZM17.5485 8.33906L15.6407 17.3297C15.5 17.9672 15.1204 18.1219 14.5907 17.8219L11.6844 15.6797L10.2829 17.0297C10.1282 17.1844 9.99692 17.3156 9.69692 17.3156L9.90317 14.3578L15.2891 9.49219C15.5235 9.28594 15.2375 9.16875 14.9282 9.375L8.27192 13.5656L5.40317 12.6703C4.77974 12.4734 4.76567 12.0469 5.53442 11.7469L16.7422 7.425C17.2625 7.2375 17.7172 7.55156 17.5485 8.33906Z" fill="white"/>
</g>
<defs>
<clipPath id="clip0_31_3420">
<rect width="23.25" height="24" fill="white" transform="translate(0.214111)"/>
</clipPath>
</defs>
</svg>
