<svg width="22" height="24" viewBox="0 0 22 24" fill="none" xmlns="http://www.w3.org/2000/svg">
<g clip-path="url(#clip0_31_3424)">
<path d="M19.2141 1.5H2.71411C1.47192 1.5 0.464111 2.50781 0.464111 3.75V20.25C0.464111 21.4922 1.47192 22.5 2.71411 22.5H19.2141C20.4563 22.5 21.4641 21.4922 21.4641 20.25V3.75C21.4641 2.50781 20.4563 1.5 19.2141 1.5ZM16.9219 8.94375C16.9313 9.075 16.9313 9.21094 16.9313 9.34219C16.9313 13.4062 13.8375 18.0891 8.18442 18.0891C6.44067 18.0891 4.82349 17.5828 3.46411 16.7109C3.71255 16.7391 3.95161 16.7484 4.20474 16.7484C5.6438 16.7484 6.96567 16.2609 8.02036 15.4359C6.67036 15.4078 5.53599 14.5219 5.14692 13.3031C5.62036 13.3734 6.04692 13.3734 6.53442 13.2469C5.12817 12.9609 4.07349 11.7234 4.07349 10.2281V10.1906C4.4813 10.4203 4.95942 10.5609 5.46099 10.5797C5.03931 10.2992 4.69363 9.91869 4.4548 9.4721C4.21597 9.02552 4.09141 8.52675 4.09224 8.02031C4.09224 7.44844 4.24224 6.92344 4.50942 6.46875C6.02349 8.33437 8.29692 9.55313 10.8469 9.68438C10.411 7.59844 11.9719 5.90625 13.8469 5.90625C14.7329 5.90625 15.5297 6.27656 16.0922 6.87656C16.786 6.74531 17.4516 6.4875 18.0422 6.13594C17.8125 6.84844 17.3297 7.44844 16.6922 7.82812C17.311 7.7625 17.911 7.58906 18.4641 7.35C18.0469 7.96406 17.5219 8.50781 16.9219 8.94375Z" fill="white"/>
</g>
<defs>
<clipPath id="clip0_31_3424">
<rect width="21" height="24" fill="white" transform="translate(0.464111)"/>
</clipPath>
</defs>
</svg>
